<svg width="33" height="32" viewBox="0 0 33 32" fill="none" xmlns="http://www.w3.org/2000/svg">
<path d="M13.5002 5.33333C14.9147 5.33333 16.2712 5.89523 17.2714 6.89543C18.2716 7.89562 18.8335 9.25217 18.8335 10.6667C18.8335 12.0811 18.2716 13.4377 17.2714 14.4379C16.2712 15.4381 14.9147 16 13.5002 16C12.0857 16 10.7291 15.4381 9.72893 14.4379C8.72873 13.4377 8.16683 12.0811 8.16683 10.6667C8.16683 9.25217 8.72873 7.89562 9.72893 6.89543C10.7291 5.89523 12.0857 5.33333 13.5002 5.33333ZM13.5002 18.6667C19.3935 18.6667 24.1668 21.0533 24.1668 24V26.6667H2.8335V24C2.8335 21.0533 7.60683 18.6667 13.5002 18.6667Z" fill="#555555"/>
</svg>
