<svg width="33" height="32" viewBox="0 0 33 32" fill="none" xmlns="http://www.w3.org/2000/svg">
<path d="M9.83325 29.3333C9.09992 29.3333 8.47236 29.0724 7.95059 28.5507C7.42792 28.028 7.16659 27.4 7.16659 26.6667C7.16659 25.9333 7.42792 25.3053 7.95059 24.7827C8.47236 24.2609 9.09992 24 9.83325 24C10.5666 24 11.1941 24.2609 11.7159 24.7827C12.2386 25.3053 12.4999 25.9333 12.4999 26.6667C12.4999 27.4 12.2386 28.028 11.7159 28.5507C11.1941 29.0724 10.5666 29.3333 9.83325 29.3333ZM23.1666 29.3333C22.4333 29.3333 21.8057 29.0724 21.2839 28.5507C20.7613 28.028 20.4999 27.4 20.4999 26.6667C20.4999 25.9333 20.7613 25.3053 21.2839 24.7827C21.8057 24.2609 22.4333 24 23.1666 24C23.8999 24 24.5279 24.2609 25.0506 24.7827C25.5724 25.3053 25.8333 25.9333 25.8333 26.6667C25.8333 27.4 25.5724 28.028 25.0506 28.5507C24.5279 29.0724 23.8999 29.3333 23.1666 29.3333ZM9.83325 22.6667C8.83325 22.6667 8.0777 22.2276 7.56659 21.3493C7.05547 20.472 7.03325 19.6 7.49992 18.7333L9.29992 15.4667L4.49992 5.33334H3.13325C2.75547 5.33334 2.44436 5.20534 2.19992 4.94934C1.95547 4.69423 1.83325 4.37778 1.83325 4.00001C1.83325 3.62223 1.96125 3.30534 2.21725 3.04934C2.47236 2.79423 2.78881 2.66667 3.16659 2.66667H5.33325C5.5777 2.66667 5.81103 2.73334 6.03325 2.86667C6.25547 3.00001 6.42214 3.18889 6.53325 3.43334L7.43325 5.33334H27.0999C27.6999 5.33334 28.111 5.55556 28.3333 6C28.5555 6.44445 28.5444 6.91112 28.2999 7.4L23.5666 15.9333C23.3221 16.3778 22.9999 16.7222 22.5999 16.9667C22.1999 17.2111 21.7444 17.3333 21.2333 17.3333H11.2999L9.83325 20H24.5333C24.911 20 25.2221 20.1276 25.4666 20.3827C25.711 20.6387 25.8333 20.9556 25.8333 21.3333C25.8333 21.7111 25.7053 22.0276 25.4493 22.2827C25.1941 22.5387 24.8777 22.6667 24.4999 22.6667H9.83325Z" fill="#555555"/>
</svg>
