<svg width="33" height="32" viewBox="0 0 33 32" fill="none" xmlns="http://www.w3.org/2000/svg">
<path d="M12.5001 8V10.6667H3.16675V8H12.5001ZM12.5001 14.6667V17.3333H3.16675V14.6667H12.5001ZM24.5001 21.3333V24H3.16675V21.3333H24.5001ZM26.2467 15.3333C26.8334 14.4267 27.1667 13.3333 27.1667 12.1467C27.1667 8.81333 24.5001 6.14667 21.1667 6.14667C17.8334 6.14667 15.1667 8.81333 15.1667 12.1467C15.1667 15.48 17.8334 18.1467 21.1667 18.1467C22.3267 18.1467 23.4201 17.8133 24.3401 17.24L28.5001 21.3333L30.3534 19.48L26.2467 15.3333ZM21.1667 15.48C19.3267 15.48 17.8334 14 17.8334 12.1467C17.8334 10.2933 19.3267 8.81333 21.1667 8.81333C22.0508 8.81333 22.8986 9.16452 23.5238 9.78964C24.1489 10.4148 24.5001 11.2626 24.5001 12.1467C24.5001 13.0307 24.1489 13.8786 23.5238 14.5037C22.8986 15.1288 22.0508 15.48 21.1667 15.48Z" fill="black"/>
</svg>
